<svg viewBox="0 0 1157.42 600.21" xmlns="http://www.w3.org/2000/svg"><circle cx="455.68" cy="350.32" fill="none" r="242.39" stroke="#fff" stroke-miterlimit="10" stroke-width="15"/><g fill="#96edc3"><path d="m887.98 228.69c-4.89-62.1-35.93-121.01-84.71-159.83-1.75-1.39-5.46-.77-5.12 2.12.8 6.72 1.59 13.45 2.39 20.17.45 3.79 6.45 3.83 6 0-.8-6.72-1.59-13.45-2.39-20.17l-5.12 2.12c47.52 37.81 78.19 95 82.96 155.59.3 3.82 6.3 3.86 6 0z"/><path d="m801.43 72.29 20.07 4.4c3.76.83 5.37-4.96 1.6-5.79-6.69-1.47-13.38-2.93-20.07-4.4-3.76-.83-5.37 4.96-1.6 5.79z"/><path d="m882.3 90.07 6.95 10.26h-4.86l-1.91-2.7-2.84-4.43-2.84 4.43-1.94 2.7h-4.72l6.91-10.19-6.59-9.68h4.82l1.55 2.12 2.84 4.43 2.84-4.46 1.51-2.09h4.75l-6.48 9.61z"/><path d="m897.42 91.08v-3.74h11.34v3.74z"/><path d="m925.72 100.33v-14.69l.25-5.18-4.14 3.35-4.43 3.53v-5.22l9.54-6.91h3.31v25.13h-4.54zm-8.32 0v-3.78h18.5v3.78z"/><path d="m903.58 143.96c-2.06 0-3.85-.42-5.36-1.26s-2.67-2.04-3.47-3.6-1.21-3.4-1.21-5.51.42-4.01 1.26-5.56 2.02-2.74 3.55-3.56 3.31-1.24 5.35-1.24c1.68 0 3.18.31 4.5.92s2.39 1.47 3.2 2.57c.82 1.1 1.27 2.42 1.37 3.96h-4.28c-.19-1.27-.71-2.24-1.57-2.9-.85-.66-1.93-.99-3.22-.99-1.18 0-2.2.27-3.08.81s-1.55 1.31-2.03 2.32-.72 2.23-.72 3.67c0 2.16.53 3.85 1.6 5.06s2.44 1.82 4.12 1.82c.82 0 1.57-.16 2.25-.49.68-.32 1.27-.77 1.76-1.35s.82-1.25.99-2.02h4.32c-.22 1.49-.75 2.78-1.6 3.89-.85 1.1-1.94 1.96-3.28 2.56s-2.81.9-4.45.9z"/><path d="m926.51 143.96c-2.09 0-3.88-.42-5.38-1.26s-2.65-2.03-3.46-3.58c-.8-1.55-1.21-3.39-1.21-5.53s.4-4.01 1.21-5.54c.8-1.54 1.96-2.72 3.46-3.56s3.29-1.26 5.38-1.26c3.12 0 5.57.92 7.34 2.75 1.78 1.84 2.66 4.37 2.66 7.61 0 2.14-.4 3.98-1.21 5.53-.8 1.55-1.96 2.74-3.46 3.58s-3.28 1.26-5.35 1.26zm0-3.52c1.78 0 3.17-.61 4.18-1.84 1.01-1.22 1.51-2.89 1.51-5s-.5-3.81-1.51-5.02-2.4-1.82-4.18-1.82-3.17.61-4.19 1.82-1.53 2.89-1.53 5.02.51 3.78 1.53 5 2.42 1.84 4.19 1.84z"/><path d="m944.8 123.66v12.42c0 1.3.35 2.33 1.06 3.1s1.62 1.15 2.75 1.15c1.3 0 2.47-.46 3.51-1.39s1.94-2.41 2.68-4.45l.65 4.28c-.79 1.75-1.87 3.05-3.24 3.91-1.37.85-2.83 1.28-4.39 1.28s-2.81-.32-3.91-.95c-1.09-.64-1.93-1.52-2.52-2.66s-.88-2.48-.88-4.01v-12.67h4.28zm13.86 0v19.87h-4.1l-.18-4.18v-15.7h4.28z"/><path d="m964.31 143.53v-19.87h4.1l.18 4.18v15.7h-4.28zm13.86 0v-12.42c0-1.3-.35-2.33-1.06-3.1s-1.63-1.15-2.75-1.15c-1.3 0-2.47.46-3.51 1.39-1.04.92-1.94 2.41-2.68 4.45l-.65-4.28c.79-1.75 1.87-3.05 3.24-3.91 1.37-.85 2.83-1.28 4.39-1.28s2.81.32 3.91.95c1.09.64 1.93 1.52 2.52 2.66s.88 2.48.88 4.01v12.67h-4.28z"/><path d="m987.82 127.15v-3.49h14.51v3.49zm10.51 16.38c-1.27 0-2.36-.26-3.28-.79-.91-.53-1.61-1.28-2.09-2.25s-.72-2.11-.72-3.4v-17.03l4.32-2.16v19.19c0 .6.08 1.13.25 1.58.17.46.5.8.99 1.03s1.21.34 2.14.34h5.65v3.49h-7.27z"/><path d="m1020.33 143.96c-2.09 0-3.88-.41-5.38-1.24s-2.66-2.02-3.47-3.58c-.82-1.56-1.22-3.41-1.22-5.54s.41-4.04 1.22-5.58c.82-1.54 1.99-2.72 3.51-3.55s3.37-1.24 5.53-1.24c3.31 0 5.75.92 7.33 2.75 1.57 1.84 2.24 4.36 2 7.58h-16.16l.04-3.06h11.77c-.1-1.15-.61-2.08-1.53-2.77-.92-.7-2.07-1.04-3.44-1.04-1.97 0-3.45.61-4.45 1.82s-1.49 2.97-1.49 5.27c0 1.27.22 2.42.67 3.44.44 1.02 1.09 1.81 1.94 2.38s1.9.85 3.15.85c1.39 0 2.57-.34 3.55-1.03s1.55-1.59 1.75-2.72h4.28c-.26 2.26-1.25 4.03-2.95 5.33s-3.91 1.94-6.62 1.94z"/><path d="m1035.16 143.53v-19.87h4.07l.22 4.21v15.66h-4.28zm13.39-10.87v-2.48c0-.98-.29-1.78-.88-2.39s-1.43-.92-2.54-.92c-1.34 0-2.57.49-3.67 1.48-1.1.98-2.03 2.53-2.77 4.64l-.54-4.03c.55-1.25 1.21-2.3 1.96-3.15.76-.85 1.62-1.49 2.59-1.93.97-.43 2.03-.65 3.19-.65 2.04 0 3.71.6 5 1.8 1.3 1.2 1.94 2.92 1.94 5.15v2.48z"/><path d="m926.98 187.16c-2.06 0-3.85-.42-5.36-1.26s-2.67-2.04-3.47-3.6-1.21-3.4-1.21-5.51.42-4.01 1.26-5.56 2.02-2.74 3.55-3.56 3.31-1.24 5.35-1.24c1.68 0 3.18.31 4.5.92s2.39 1.47 3.2 2.57c.82 1.1 1.27 2.42 1.37 3.96h-4.28c-.19-1.27-.71-2.24-1.57-2.9-.85-.66-1.93-.99-3.22-.99-1.18 0-2.2.27-3.08.81s-1.55 1.31-2.03 2.32-.72 2.23-.72 3.67c0 2.16.53 3.85 1.6 5.06s2.44 1.82 4.12 1.82c.82 0 1.57-.16 2.25-.49.68-.32 1.27-.77 1.76-1.35s.82-1.25.99-2.02h4.32c-.22 1.49-.75 2.78-1.6 3.89-.85 1.1-1.94 1.96-3.28 2.56s-2.81.9-4.45.9z"/><path d="m940.73 186.73v-3.49h18.43v3.49zm2.59-23.04v-3.49h6.59v3.49zm4.43 23.04v-26.53h4.32v26.53z"/><path d="m973.31 187.16c-2.09 0-3.88-.42-5.38-1.26s-2.65-2.03-3.46-3.58c-.8-1.55-1.21-3.39-1.21-5.53s.4-4.01 1.21-5.54c.8-1.54 1.96-2.72 3.46-3.56s3.29-1.26 5.38-1.26c3.12 0 5.57.92 7.34 2.75 1.78 1.84 2.66 4.37 2.66 7.61 0 2.14-.4 3.98-1.21 5.53-.8 1.55-1.96 2.74-3.46 3.58s-3.28 1.26-5.35 1.26zm0-3.52c1.78 0 3.17-.61 4.18-1.84 1.01-1.22 1.51-2.89 1.51-5s-.5-3.81-1.51-5.02-2.4-1.82-4.18-1.82-3.17.61-4.19 1.82-1.53 2.89-1.53 5.02.51 3.78 1.53 5 2.42 1.84 4.19 1.84z"/><path d="m997.18 187.16c-2.06 0-3.85-.42-5.36-1.26s-2.67-2.04-3.47-3.6-1.21-3.4-1.21-5.51.42-4.01 1.26-5.56 2.02-2.74 3.55-3.56 3.31-1.24 5.35-1.24c1.68 0 3.18.31 4.5.92s2.39 1.47 3.2 2.57c.82 1.1 1.27 2.42 1.37 3.96h-4.28c-.19-1.27-.71-2.24-1.57-2.9-.85-.66-1.93-.99-3.22-.99-1.18 0-2.2.27-3.08.81s-1.55 1.31-2.03 2.32-.72 2.23-.72 3.67c0 2.16.53 3.85 1.6 5.06s2.44 1.82 4.12 1.82c.82 0 1.57-.16 2.25-.49.68-.32 1.27-.77 1.76-1.35s.82-1.25.99-2.02h4.32c-.22 1.49-.75 2.78-1.6 3.89-.85 1.1-1.94 1.96-3.28 2.56s-2.81.9-4.45.9z"/><path d="m1010.53 186.73v-26.53h4.32v9.47l-.25 5.65 3.82-4.14 4.64-4.32h5.62l-13.82 12.96v6.91h-4.32zm13.5 0-6.73-11.92 3.85-1.73 7.88 13.64h-5z"/><path d="m1035.59 186.73-3.1-19.94h4l1.51 10.87.61 4.61.83-4.61 2.2-10.87h3.85l2.3 10.87.86 4.68.58-4.68 1.51-10.87h3.82l-3.06 19.94h-5l-2.3-10.4-.65-5.44-.68 5.44-2.27 10.4h-5z"/><path d="m1057.87 186.73v-3.49h18.04v3.49zm2.56-16.38v-3.49h6.59v3.49zm4.21-6.62v-4.39h4.68v4.39zm.25 23v-19.87h4.28v19.87z"/><path d="m1090.81 187.16c-1.78 0-3.34-.31-4.7-.92s-2.41-1.48-3.15-2.61c-.75-1.13-1.13-2.46-1.15-4h4.03c-.02 1.34.41 2.4 1.31 3.17s2.12 1.15 3.65 1.15c1.22 0 2.21-.23 2.95-.68.74-.46 1.12-1.08 1.12-1.87 0-.62-.23-1.13-.68-1.51s-1.06-.68-1.82-.9-1.58-.41-2.48-.59-1.81-.4-2.72-.65-1.75-.59-2.5-1.01c-.76-.42-1.36-.98-1.82-1.67-.46-.7-.68-1.58-.68-2.66 0-1.18.33-2.21.99-3.11s1.6-1.6 2.83-2.11 2.66-.76 4.32-.76c2.5 0 4.51.58 6.05 1.75 1.54 1.16 2.36 2.77 2.48 4.81h-4c-.07-1.08-.51-1.91-1.31-2.48-.8-.58-1.88-.86-3.22-.86-1.22 0-2.17.24-2.83.72s-.99 1.09-.99 1.84c0 .62.23 1.1.7 1.44s1.07.6 1.82.79c.74.19 1.57.37 2.48.52.91.16 1.82.35 2.72.59s1.73.57 2.48.99c.76.42 1.37.99 1.84 1.71s.7 1.66.7 2.81c0 1.9-.76 3.39-2.29 4.48-1.52 1.09-3.57 1.64-6.14 1.64z"/><path d="m1113.92 187.16c-2.09 0-3.88-.41-5.38-1.24s-2.66-2.02-3.47-3.58c-.82-1.56-1.22-3.41-1.22-5.54s.41-4.04 1.22-5.58c.82-1.54 1.99-2.72 3.51-3.55s3.37-1.24 5.53-1.24c3.31 0 5.75.92 7.33 2.75 1.57 1.84 2.24 4.36 2 7.58h-16.16l.04-3.06h11.77c-.1-1.15-.61-2.08-1.53-2.77-.92-.7-2.07-1.04-3.44-1.04-1.97 0-3.45.61-4.45 1.82s-1.49 2.97-1.49 5.27c0 1.27.22 2.42.67 3.44.44 1.02 1.09 1.81 1.94 2.38s1.9.85 3.15.85c1.39 0 2.57-.34 3.55-1.03s1.55-1.59 1.75-2.72h4.28c-.26 2.26-1.25 4.03-2.95 5.33s-3.91 1.94-6.62 1.94z"/></g><circle cx="454.5" cy="110.32" fill="#5354d7" r="56.47"/><circle cx="641.59" cy="190.57" fill="#a653fc" r="56.47"/><circle cx="269.76" cy="190.57" fill="#3369e2" r="56.47"/><circle cx="698.06" cy="366.15" fill="#c152ff" r="56.47"/><circle cx="213.29" cy="360.91" fill="#19aad1" r="56.47"/><circle cx="455.68" cy="360.91" fill="#e70bf9" r="56.47"/><path d="m455.68 360.91v231.8" fill="none" stroke="#fff" stroke-miterlimit="10" stroke-width="15"/><path d="m641.59 188.57-187.09 177.58" fill="none" stroke="#fff" stroke-miterlimit="10" stroke-width="15"/><path d="m695.06 368.15h-240.56" fill="none" stroke="#fff" stroke-miterlimit="10" stroke-width="15"/><circle cx="453.34" cy="107.94" fill="#fff" r="10.09"/><circle cx="269.76" cy="190.57" fill="#fff" r="10.09"/><circle cx="213.29" cy="360.91" fill="#fff" r="10.09"/><circle cx="641.59" cy="188.57" fill="#fff" r="13.18"/><circle cx="454.5" cy="110.14" fill="#fff" r="13.18"/><circle cx="269.76" cy="190.57" fill="#fff" r="13.18"/><circle cx="213.29" cy="360.91" fill="#fff" r="13.18"/><circle cx="698.06" cy="368.15" fill="#fff" r="13.18"/><path d="m453.34 368.15h194.14l3.36-187.67z" fill="none" stroke="#7cc0f7" stroke-miterlimit="10" stroke-width="8"/><text fill="#7cc0f7" font-family="AzeretMonoRoman-Bold, 'Azeret Mono'" font-size="36" font-weight="700" transform="translate(475.84 416.06)"><tspan x="0" y="0">sin(r)</tspan></text><text fill="#7cc0f7" font-family="AzeretMonoRoman-Bold, 'Azeret Mono'" font-size="36" font-weight="700" transform="translate(670.39 294.26)"><tspan x="0" y="0">cos(r)</tspan></text><text fill="#7cc0f7" font-family="AzeretMonoRoman-Bold, 'Azeret Mono'" font-size="24" font-weight="700" transform="translate(449.21 261.19)"><tspan x="0" y="0">radius</tspan></text><path d="m520.55 320.45c15.85 2.5 26.97 16.62 24.03 32.79-1.03 5.66 7.65 8.09 8.68 2.39 3.73-20.58-9.29-40.55-30.32-43.86-5.67-.89-8.11 7.78-2.39 8.68z" fill="#7cc0f7"/><text fill="#7cc0f7" font-family="AzeretMonoRoman-Bold, 'Azeret Mono'" font-size="24" font-weight="700" transform="translate(552.91 324.04)"><tspan x="0" y="0">angle</tspan></text><text fill="#96edc3" font-family="AzeretMonoRoman-Regular, 'Azeret Mono'" font-size="36" transform="translate(777.84 378.38)"><tspan x="0" y="0">0deg</tspan></text><text fill="#96edc3" font-family="AzeretMonoRoman-Regular, 'Azeret Mono'" font-size="36" transform="translate(694.53 156.03)"><tspan x="0" y="0">45deg</tspan></text><text fill="#96edc3" font-family="AzeretMonoRoman-Regular, 'Azeret Mono'" font-size="36" transform="translate(403.43 30.56)"><tspan x="0" y="0">90deg</tspan></text><text fill="#96edc3" font-family="AzeretMonoRoman-Regular, 'Azeret Mono'" font-size="36" transform="translate(111.83 115.99)"><tspan x="0" y="0">135deg</tspan></text><text fill="#96edc3" font-family="AzeretMonoRoman-Regular, 'Azeret Mono'" font-size="36" transform="translate(0 362.24)"><tspan x="0" y="0">180deg</tspan></text></svg>